# xmcd
#
# Track frame offsets:
#	150
#	22440
#	41850
#	58665
#	79295
#	98808
#	119365
#	139827
#	177831
#	196716
#	212558
#	232848
#
# Disc length: 3359 seconds
#
# Revision: 0
# Processed by: cddbd v1.5.2PL0 Copyright (c) Steve Scherf et al.
# Submitted via: EasyCDDAExtractor 8.2.3.1
#
DISCID=a70d1d0c
DTITLE=George Thorogood and The Destroyers - The Baddest Of George Thorogood and T
DTITLE=he Destroyers
DYEAR=1992
DGENRE=Blues
TTITLE0=Bad To the Bone
TTITLE1=Move It On Over
TTITLE2=I'm a Steady Rollin' Man
TTITLE3=You Talk Too Much
TTITLE4=Who Do You Love?
TTITLE5=Gear Jammer
TTITLE6=I Drink Alone
TTITLE7=One Bourbon, One Scotch, One Beer
TTITLE8=If You Don't Start Drinkin' (I'm Gonna Leave)
TTITLE9=Treat Her Right
TTITLE10=Long Gone
TTITLE11=Louie To Frisco
EXTD=ID3G:  17 YEAR: 1992\n
EXTT0=
EXTT1=
EXTT2=
EXTT3=
EXTT4=
EXTT5=
EXTT6=
EXTT7=
EXTT8=
EXTT9=
EXTT10=
EXTT11=
PLAYORDER=
